<?xml version="1.0" encoding="UTF-8" standalone="no"?>
<!-- Created with Inkscape (http://www.inkscape.org/) -->

<svg
   width="210mm"
   height="297mm"
   viewBox="0 0 210 297"
   version="1.1"
   id="svg1"
   inkscape:export-filename="bitmap.pdf"
   inkscape:export-xdpi="96"
   inkscape:export-ydpi="96"
   inkscape:version="1.4 (e7c3feb1, 2024-10-09)"
   sodipodi:docname="drawing2.svg"
   xmlns:inkscape="http://www.inkscape.org/namespaces/inkscape"
   xmlns:sodipodi="http://sodipodi.sourceforge.net/DTD/sodipodi-0.dtd"
   xmlns="http://www.w3.org/2000/svg"
   xmlns:svg="http://www.w3.org/2000/svg">
  <sodipodi:namedview
     id="namedview1"
     pagecolor="#ffffff"
     bordercolor="#000000"
     borderopacity="0.25"
     inkscape:showpageshadow="2"
     inkscape:pageopacity="0.0"
     inkscape:pagecheckerboard="0"
     inkscape:deskcolor="#d1d1d1"
     inkscape:document-units="mm"
     inkscape:zoom="0.21534889"
     inkscape:cx="83.585294"
     inkscape:cy="422.5701"
     inkscape:window-width="1360"
     inkscape:window-height="623"
     inkscape:window-x="59"
     inkscape:window-y="57"
     inkscape:window-maximized="0"
     inkscape:current-layer="layer1" />
  <defs
     id="defs1" />
  <g
     inkscape:label="Layer 1"
     inkscape:groupmode="layer"
     id="layer1">
    <g
       id="g26"
       transform="matrix(-0.01046288,2.9679963,-2.9679963,-0.01046288,533.46985,-81.168848)">
      <g
         inkscape:groupmode="layer"
         id="layer2"
         inkscape:label="Layer 2">
        <path
           style="opacity:0.92;fill:#1a1a1a;stroke-width:0.264583"
           d="m 41.394832,142.47162 h 1.461728 l 1.959334,-0.0622 0.373206,0.0311 v 0.18661 l -0.217705,0.1244 -0.217702,0.311 -0.0311,0.74642 0.0622,1.21292 0.0933,1.11962 -0.248806,-0.0311 -0.155501,-0.15551 -0.217704,-0.1555 h -0.279906 l -0.155503,0.0311 -0.279903,0.21771 -0.64585,0.15422 -0.679392,0.0799 -1.438712,0.0266 -1.372105,-0.19982 -1.318818,-0.38632 -1.185606,-0.62611 -0.66607,-0.63942 -0.586142,-0.79929 -0.346356,-0.69271 -0.173177,-0.62611 0.01331,-0.83925 0.133215,-0.74599 0.306393,-0.79929 0.679392,-0.75932 0.546176,-0.54618 0.692714,-0.47957 0.66607,-0.45292 0.599464,-0.26643 0.732676,-0.19983 1.185606,-0.15985 0.799285,-0.0266 0.532855,0.0133 0.785963,0.10658 0.66607,0.13321 0.359677,0.0799 0.306393,-0.0666 0.253106,-0.10657 0.119893,-0.0266 0.106572,0.10657 0.119893,2.38453 -0.09325,0.11989 -0.306393,-0.21314 -0.133215,-0.14653 v -0.47957 l -0.412961,-0.51954 -0.706036,-0.47957 -1.012428,-0.31972 -1.292174,0.0267 -0.94582,0.22646 -0.679391,0.34636 -0.94582,0.5595 -0.546179,0.86589 -0.426284,0.87921 -0.213143,1.15896 0.06661,0.83925 0.106571,0.5595 0.466249,0.91918 0.519536,0.61278 0.639426,0.38632 0.772642,0.27975 1.012428,0.21314 0.999104,0.1199 0.692713,0.0266 0.426286,-0.13321 0.266428,-0.26643 0.266427,-0.42629 0.133215,-0.34635 0.09325,-0.34636 -0.05329,-0.34636 -0.106572,-0.45292 -0.186499,-0.33304 -0.412962,-0.0932 -1.092356,0.0133 -0.119893,-0.19982 z"
           id="path1" />
        <path
           style="opacity:0.92;fill:#1a1a1a;stroke-width:0.264583"
           d="m 47.627997,141.94751 0.274836,-0.20358 0.305372,-0.0611 0.417343,-0.0204 0.366448,-0.0305 0.335909,0.14251 0.264658,0.2443 0.111969,0.42752 0.0509,0.62093 -0.02037,0.29519 -0.06107,2.00528 0.01019,0.30538 0.101791,0.12214 0.111972,0.15269 0.183224,0.16287 0.183221,0.11196 0.325731,-0.0102 0.274836,-0.0407 0.183224,-0.0509 0.162867,-0.0509 0.08143,-0.13233 0.09161,-0.31555 -0.04071,-0.23412 -0.07126,-0.23412 -0.142508,-0.0611 -0.132328,-0.0509 -0.122148,0.0509 -0.213762,0.0712 -0.101791,0.0814 0.11197,-1.43525 0.05089,-1.00773 -0.03054,-0.85504 -0.2443,-0.61075 -0.234119,-0.21376 -0.203581,-0.12215 -0.35627,-0.11197 h -0.31555 l -0.539493,0.0407 -0.376627,0.10179 -0.468238,0.1934 -0.274836,0.21376 -0.254476,0.0509 -0.213762,0.10179 -0.152686,0.2443 -0.132329,0.16286 -0.06107,0.13233 -0.02037,0.14251 0.06107,0.18322 0.152689,0.0814 0.132328,0.0509 h 0.183224 l 0.223938,-0.0916 0.09161,-0.11197 0.0509,-0.10179 0.01019,-0.11197 -0.01019,-0.0814 z"
           id="path2"
           inkscape:label="a1" />
        <path
           style="opacity:0.92;fill:#1a1a1a;stroke-width:0.264583"
           d="m 49.602741,143.84083 -0.213759,-0.0509 -0.45806,0.0509 -0.610746,0.2443 -0.335909,0.1934 -0.223941,0.25447 -0.08143,0.28502 -0.01019,0.20358 0.01019,0.12215 0.08143,0.18322 0.132329,0.12215 0.173042,0.0814 0.366448,0.0509 0.346091,0.0102 0.254476,-0.0407 0.386805,-0.23412 0.23412,-0.26465 -0.01019,0.45806 -0.213759,0.13232 -0.498777,0.27484 -0.33591,0.17305 -0.427521,0.11196 -0.498777,-0.0102 -0.346091,-0.14251 -0.274833,-0.34609 -0.12215,-0.26465 -0.06107,-0.22395 0.01019,-0.26465 0.06107,-0.2443 0.183224,-0.27484 0.295193,-0.21376 0.335912,-0.1934 0.478417,-0.15269 0.580208,-0.13233 0.549672,-0.0611 0.234119,-0.0305 0.111969,-0.15268 v 0.46824 z"
           id="path3"
           inkscape:label="a2" />
        <path
           style="opacity:1;fill:#1a1a1a;stroke-width:0.264583"
           d="m 54.176342,145.13909 0.469363,0.15254 0.422428,0.10561 0.187746,0.15254 0.02347,0.10561 v 0.21121 l -0.02347,0.0821 h -0.08214 l -0.164277,0.0235 -0.375491,0.0118 -1.091272,0.0587 -0.469363,0.0118 -0.387225,0.0352 -0.246417,-0.0352 v -0.14081 l 0.02347,-0.23468 0.04694,-0.15255 0.293352,-0.0235 0.176011,-0.0587 0.129077,-0.21121 v -0.29335 l -0.0352,-0.72752 -0.08214,-1.17341 -0.08214,-1.17341 -0.04694,-0.0352 h -0.11734 l -0.222948,0.0235 -0.07041,-0.10561 v -0.18774 l -0.02347,-0.22295 -0.02347,-0.12908 0.176011,-0.0704 0.08214,-0.18775 v -0.31682 l 0.0352,-0.50457 0.04694,-0.70404 0.0352,-0.38723 0.199478,-0.38722 0.281619,-0.50457 0.340289,-0.44589 0.328554,-0.35202 0.539769,-0.31683 0.926994,-0.12907 0.539768,0.0704 0.434163,0.0587 0.59844,0.18775 0.363757,0.34029 0.139891,0.19593 0.0576,0.23039 0.03456,0.16128 -0.06912,0.13824 h -0.184317 l -0.230399,-0.0461 h -0.725752 l -0.06912,-0.1152 -0.08064,-0.25344 -0.161277,-0.31103 h -0.483835 l -0.368636,0.0461 -0.426236,0.13824 -0.391676,0.34559 -0.345599,0.54143 -0.149757,0.72576 -0.09216,0.97919 0.03456,1.01375 0.115199,1.14047 0.04608,0.91007 0.126717,1.25567 z"
           id="path4"
           inkscape:label="f" />
        <path
           style="opacity:1;fill:#1a1a1a;stroke-width:0.264583"
           d="m 58.971589,142.10697 0.57277,-0.34605 0.322186,-0.0597 0.405712,0.15512 0.548907,0.39378 0.250587,0.45345 0.250587,0.7637 -0.107394,0.82335 -0.09546,0.36992 -0.274452,0.29832 -0.322186,0.36991 -0.250587,0.0955 -0.31025,0.1074 -0.477311,-0.0119 -0.417645,-0.0835 -0.26252,-0.22672 -0.238654,-0.29831 -0.178993,-0.0477 -0.13126,-0.0597 -0.0358,0.51311 0.0358,0.34605 0.13126,0.25059 0.608571,0.13126 0.73983,0.0239 0.751761,-0.13126 0.620503,-0.23865 0.52504,-0.38185 0.381849,-0.48924 0.214789,-0.46538 0.143192,-0.70403 v -0.78756 l -0.202856,-0.7279 -0.334116,-0.54891 -0.73983,-0.48924 -1.050081,-0.27445 -0.584706,0.0597 -0.6205,0.40572 -0.369917,0.26252 -0.143193,0.22672 0.01193,0.54891 0.04773,0.27445 0.274455,-0.22672 z"
           id="path5"
           inkscape:label="p1" />
        <path
           style="opacity:1;fill:#1a1a1a;stroke-width:0.264583"
           d="m 55.928741,149.50527 0.334116,-0.0716 0.274455,-0.10739 0.298317,-0.0835 0.190924,-0.11933 0.131259,-0.11933 0.08353,-0.27445 -0.0358,-0.64437 -0.119327,-2.05243 -0.155125,-2.85192 -0.09546,-0.81143 -0.01193,-0.47731 -0.26252,-0.17899 -0.202859,-0.33411 0.334119,-0.0955 0.715962,-0.34605 0.644369,-0.16705 h 0.214789 l -0.01193,0.28638 -0.05966,0.64437 -0.0358,0.71596 -0.01193,0.78756 0.05966,1.69445 0.155126,1.90924 0.274455,2.21949 0.155125,0.0716 0.226721,0.0835 0.214789,0.0597 0.0716,0.0835 v 0.22672 l -0.0358,0.15512 -1.527389,0.0358 -1.252937,0.0955 -0.417648,-0.0835 z"
           id="path6"
           inkscape:label="p2" />
        <path
           style="opacity:1;fill:#1a1a1a;stroke-width:0.264583"
           d="m 66.760449,143.89789 -0.175363,-0.0915 -0.327856,-0.061 -0.358354,0.061 -0.365977,0.17536 -0.411726,0.22874 -0.144865,0.26686 0.05337,0.53372 0.07625,0.23636 0.09149,0.16774 0.259234,0.0534 0.30498,0.008 0.297357,-0.0152 0.304983,-0.12962 0.289731,-0.0991 0.144868,-0.25923 0.04575,0.44985 -0.121991,0.11436 -0.320231,0.17537 -0.426974,0.16774 -0.457472,0.0991 h -0.411726 l -0.282107,-0.0991 -0.297357,-0.16774 -0.190614,-0.28211 -0.08387,-0.21349 -0.02286,-0.27448 -0.061,-0.32023 0.07625,-0.20586 0.312608,-0.35836 0.404098,-0.16773 0.442224,-0.16774 0.579464,-0.0915 0.289732,-0.0305 0.228738,-0.0381 0.213487,-0.12199 0.07625,-0.15249 z"
           id="path7"
           inkscape:label="a1" />
        <path
           style="opacity:1;fill:#1a1a1a;stroke-width:0.264583"
           d="m 68.750454,145.01108 0.0076,0.75483 -0.129616,0.0381 -0.236361,0.10674 -0.30498,0.0534 -0.32023,-0.0305 -0.297357,-0.10674 -0.190614,-0.15249 -0.259236,-0.28973 -0.129617,-0.0839 -0.05337,-0.22111 -0.01524,-2.33311 0.0076,-0.28211 0.0305,-0.32785 -0.03812,-0.30498 -0.167741,-0.23637 -0.205861,-0.12961 -0.259234,-0.061 -0.236363,-0.0534 -0.266858,0.0686 -0.243986,0.10674 -0.167738,0.16012 -0.213487,0.25161 -0.121994,0.20586 -0.175363,0.0305 -0.266859,0.0534 -0.304982,-0.11437 -0.04575,-0.26686 0.06862,-0.20586 0.221112,-0.12961 0.213487,-0.0534 0.167741,0.0686 0.190614,-0.21348 0.221109,-0.35073 0.228738,-0.15249 0.30498,-0.0762 0.312608,-0.0534 0.396475,0.0152 0.495594,0.11437 0.312608,0.0839 0.23636,0.29736 0.228735,0.66333 0.06862,0.82345 0.0076,1.18943 0.02289,0.44985 0.07625,0.44984 0.129617,0.26686 0.167741,0.13724 0.221109,0.0229 0.144868,-0.0457 z"
           id="path8"
           inkscape:label="a2" />
        <path
           style="opacity:1;fill:#1a1a1a;stroke-width:0.264583"
           d="m 71.429853,141.28572 0.356986,-0.14604 0.19472,-0.22718 0.227174,-0.14604 0.292082,-0.0649 0.38944,0.0162 0.259627,0.19472 0.159166,0.20561 0.05744,0.33029 -0.01437,0.34465 -0.01437,0.22976 -0.186682,0.0287 -0.129244,-0.12924 -0.272843,-0.0718 -0.344646,-0.11489 -0.373367,-0.11488 -0.272844,0.11488 -0.272846,0.10053 -0.0718,0.2872 0.05744,0.68929 0.10052,1.34987 0.08616,0.94777 v 0 l 0.617492,0.12925 0.172324,0.22976 v 0.1436 l -0.172324,0.0718 -0.890336,0.0862 -1.321141,0.0287 -0.172323,-0.56004 0.129241,-0.20105 0.186682,-0.31592 0.08616,-0.38773 -0.01437,-0.35901 -0.143603,-1.2637 -0.114882,-1.00522 -0.186682,-0.1436 -0.201044,-0.22976 0.01437,-0.31593 0.402087,-0.10052 0.387726,-0.12924 0.416449,-0.12924 0.215403,0.0718 0.04308,0.15796 v 0.12924 0.14361 l 0.02872,0.12924 0.100521,0.11488 z"
           id="path9"
           inkscape:label="r" />
        <path
           style="opacity:1;fill:#1a1a1a;stroke-width:0.264583"
           d="m 77.124652,137.41491 0.289197,-0.15221 0.350084,-0.0304 0.654499,-0.0304 1.948286,-0.0913 1.12635,-0.0152 h 0.456631 l 0.395745,0.0152 0.410964,0.0152 0.304422,0.0761 0.532733,0.31964 0.289198,0.24353 0.31964,0.42619 0.06088,0.31964 0.03044,0.53274 -0.09133,0.56317 -0.121766,0.21309 -0.273979,0.56318 -0.289198,0.30442 -0.334861,0.19787 -0.639281,0.2892 -0.776269,0.24354 -0.639281,0.0913 -0.776269,0.0152 -0.01521,-0.2131 0.806712,-0.0457 0.9437,-0.16743 0.395745,-0.12177 0.289198,-0.44141 0.213095,-0.51751 0.03044,-0.45663 -0.182649,-0.59362 -0.365305,-0.70016 -0.47185,-0.35008 -0.669721,-0.15221 -0.654503,0.0761 -0.410967,0.2892 0.01521,0.82193 0.0761,3.36384 0.182652,2.81588 0.121767,0.21309 0.532733,0.22831 0.365305,0.0913 0.380524,-0.0913 0.624059,-0.12176 0.365302,-0.15221 0.350084,-0.33487 0.304419,-0.48707 0.136988,-0.41096 -0.01521,-0.51752 -0.07611,-0.50229 -0.289198,-0.50229 -0.426185,-0.35008 -0.745829,-0.2892 -0.761047,-0.24354 -0.502293,-0.10654 1.065466,-0.13699 0.334862,-0.0761 0.319641,-0.0304 0.684945,0.16743 0.50229,0.15221 0.47185,0.22832 0.334862,0.2892 0.304419,0.42618 0.106548,0.60884 -0.03044,0.63928 -0.09133,0.53274 -0.18265,0.35008 -0.380526,0.59362 -0.532734,0.38052 -0.532733,0.19787 -0.563176,0.13699 -1.111131,0.12177 -0.791491,0.0152 h -1.019804 l -1.187236,-0.0609 -0.79149,-0.0152 -0.243536,-0.19788 -0.04566,-0.19787 0.09133,-0.24354 0.228315,0.0152 0.136988,0.0152 0.365302,-0.0761 0.273979,-0.0913 0.213092,-0.2892 0.182653,-0.83715 -0.04566,-1.82652 -0.0761,-1.309 -0.04566,-1.93306 -0.09133,-0.39575 -0.106548,-0.25875 -0.289198,-0.24354 -0.487071,-0.0609 -0.47185,0.0152 -0.197871,-0.18266 -0.09133,-0.22831 v -0.0913 z"
           id="path10"
           inkscape:label="B" />
        <path
           style="opacity:1;fill:#1a1a1a;stroke-width:0.264583"
           d="m 89.853248,141.34327 0.412361,0.0962 0.302397,0.19243 0.247415,0.21993 0.192437,0.23367 0.26435,0.40385 0.116882,0.23376 0.11688,0.40909 -0.128569,0.59609 -0.128569,0.47921 -0.210386,0.40908 -0.315576,0.38571 -0.327266,0.17532 -0.409083,0.12857 h -0.444148 l -0.502587,-0.28052 -0.654534,-0.33895 -0.327266,-0.36233 -0.210386,-0.42077 -0.04675,-0.38571 -0.140255,-0.60778 0.116879,-0.51427 0.210386,-0.47922 0.327266,-0.28051 0.619469,-0.21038 0.514276,-0.11689 0.257138,0.0234 0.07013,-0.6896 -0.561028,0.0351 -0.853231,0.15194 -0.771411,0.25714 -0.514276,0.56103 -0.257138,0.51427 -0.151945,0.57272 -0.04675,0.59609 0.05844,0.63115 0.163634,0.44415 0.222073,0.51428 0.338955,0.31558 0.561027,0.32726 0.584404,0.14026 0.666221,0.15194 0.736349,0.0935 0.736348,-0.1052 0.619469,-0.16363 0.444146,-0.35064 0.409083,-0.53765 0.315579,-0.79479 0.03507,-0.60778 -0.116882,-0.77141 -0.268825,-0.65454 -0.537652,-0.61946 -0.911669,-0.54935 -0.4909,-0.12856 -0.432459,-0.0351 -0.05844,0.6896 z"
           id="path11"
           inkscape:label="o" />
        <path
           style="opacity:1;fill:#1a1a1a;stroke-width:0.264583"
           d="m 95.421475,145.15425 0.350645,0.0701 0.2922,0.0468 0.268827,0.18701 v 0.12857 0.11688 l -0.02336,0.0935 -0.257138,0.0351 h -0.525965 l -0.794788,-0.0117 c 0,0 -0.514276,-0.11688 -0.514276,-0.0584 0,0.0584 -0.350644,-0.0935 -0.350644,-0.0935 l -0.0935,-0.28051 0.116883,-0.1052 0.315576,-0.11687 0.128569,-0.15195 0.07013,-0.25714 -0.11688,-0.74804 -0.03507,-1.44932 -0.0935,-0.75972 -0.151945,-0.12857 -0.338955,-0.0701 -0.140255,-0.24545 -0.0117,-0.17532 0.151945,-0.25714 0.233762,-0.16363 0.257138,-0.16363 0.432459,-0.15195 0.30389,0.0234 0.222072,0.0935 0.08182,0.25714 0.0117,0.2922 0.03506,0.5844 0.292203,-0.31558 0.210386,-0.42077 0.409083,-0.21038 0.467521,-0.15195 0.222076,0.0584 0.116879,0.0701 0.163634,0.45584 0.02336,0.37402 -0.140258,0.24545 -0.315577,0.11688 -0.455837,0.0234 -0.537652,0.0818 -0.280514,0.23377 -0.128566,0.26882 -0.01169,0.64285 0.05844,0.75972 z"
           id="path12"
           inkscape:label="r" />
        <path
           style="opacity:1;fill:#1a1a1a;stroke-width:0.264583"
           d="m 100.08502,141.44913 0.72466,-0.16363 0.77141,0.0467 0.97011,0.17532 0.42077,0.51428 0.36234,0.71297 0.0701,0.70129 -0.0818,0.7831 -0.21039,0.3857 -0.42077,0.4909 -0.47921,0.23376 -0.33895,0.0935 -0.75973,-0.11688 -0.60778,-0.23376 -0.33895,-0.14026 -0.14026,-0.18701 -0.0117,-0.3974 -0.303895,-3.09733 -0.0935,-1.11037 -0.0935,-0.95842 0.02336,-0.47922 0.233762,-0.68959 0.08181,-0.79479 -0.2922,-0.1987 -0.525966,-0.26883 -0.514273,0.0584 -0.549341,0.14026 -0.222073,0.17532 0.163632,0.51428 0.245451,0.54934 0.198697,0.97011 0.233762,1.28569 0.338955,3.56486 0.11688,0.80648 -0.08182,0.31558 -0.0935,0.0935 0.105193,0.44415 0.07013,0.25714 h 0.514276 l 0.86491,-0.0351 1.02856,-0.0468 1.15711,-0.0584 0.45584,-0.14026 0.44415,-0.2922 0.3857,-0.40908 0.2922,-0.4909 0.32727,-1.13375 -0.0117,-0.63115 -0.1987,-0.57272 -0.26883,-0.53765 -0.36233,-0.35064 -0.33895,-0.24545 -0.73635,-0.28052 -0.67791,0.0351 -0.95842,0.0935 -0.65454,0.1052 -0.362321,0.22207 -0.233762,0.1987 0.04675,0.22207 0.222073,-0.0351 z"
           id="path13"
           inkscape:label="b" />
        <path
           style="opacity:1;fill:#1a1a1a;stroke-width:0.264583"
           d="m 108.70257,141.0606 h 0.37288 l 0.29002,0.13811 0.24859,0.23478 0.41431,0.4005 0.40051,0.49718 0.16573,0.40051 0.0414,0.41431 -0.0138,0.44194 -0.13811,0.53861 -0.17953,0.44193 -0.37289,0.37289 -0.19335,0.16572 -0.34526,0.0829 -0.5248,0.0138 -0.64909,-0.15192 -0.46956,-0.22096 -0.5248,-0.49718 -0.24859,-0.38669 -0.1381,-0.44194 -0.0414,-0.49718 0.0276,-0.42813 0.19334,-0.46955 0.22097,-0.35908 0.37289,-0.34526 0.29002,-0.17954 0.31764,-0.12429 0.34526,-0.0276 v -0.6491 l -0.53861,0.0552 -0.93911,0.2624 -0.6491,0.45575 -0.56623,0.63529 -0.19335,1.14627 v 0.51099 l 0.0414,0.38669 0.41431,0.55242 0.42813,0.62147 0.38669,0.31765 0.51099,0.2624 0.73196,0.24859 0.93911,-0.0414 0.89768,-0.0967 0.70434,-0.2624 0.42813,-0.4005 0.41431,-0.55242 0.19335,-0.84245 0.069,-0.77339 -0.2624,-0.62147 -0.27621,-0.60766 -0.44193,-0.42813 -0.44194,-0.35907 -0.48337,-0.30383 -0.62147,-0.16573 -0.49718,0.0552 -0.24859,-0.0414 -0.0138,0.59385 z"
           id="path14"
           inkscape:label="o" />
        <path
           style="opacity:1;fill:#1a1a1a;stroke-width:0.264583"
           d="m 114.95873,141.76494 0.56623,-0.30383 0.41432,-0.17954 h 0.74577 l 0.73195,0.23478 0.22097,0.69053 0.0691,1.02197 -0.0276,1.00817 v 0.51099 l -0.0552,0.29002 -0.37289,0.19335 0.0276,0.40051 0.19334,0.37288 h 0.66291 l 0.96673,-0.15192 0.98055,0.0691 0.17954,-0.1243 v -0.34526 l -0.11049,-0.23478 -0.0691,-0.16573 -0.19335,-0.0967 h -0.30383 l -0.20716,0.0276 -0.16572,-0.23478 -0.0552,-0.62147 v -1.02198 l -0.0553,-1.07722 -0.38669,-0.7872 -0.55242,-0.5248 -0.67671,-0.20716 -0.74577,-0.0414 -0.69053,0.24859 -0.62147,0.27621 -0.53861,0.40051 0.12429,-0.58004 -0.1381,-0.40051 -0.63529,0.0552 -0.63528,0.15192 -0.20716,0.22097 -0.0829,0.37288 0.1381,0.59385 0.11049,0.89769 0.12429,1.00816 0.0553,0.70434 -0.0691,0.56623 -0.17953,0.29002 -0.22097,0.23478 v 0.2624 l 0.0552,0.16573 0.42812,0.0691 0.96674,-0.0552 1.02198,-0.0691 0.22097,0.0276 v -0.2762 -0.1243 l -0.20716,-0.0967 -0.37288,-0.0414 -0.44194,-0.19334 -0.29002,-0.34527 -0.0414,-0.63528 -0.0414,-0.80101 0.0691,-1.03579 0.0967,-0.34526 z"
           id="path15"
           inkscape:label="n" />
        <path
           style="opacity:1;fill:#1a1a1a;stroke-width:0.264583"
           d="m 46.779314,153.49823 0.718299,-0.15392 h 0.359151 l 0.43611,-0.16675 -0.03848,-0.37198 -0.371978,0.0257 -0.628513,0.0257 -0.346323,-0.14109 -0.577207,-0.38481 -0.256535,0.10262 -0.07696,0.33349 -0.256535,0.20523 -0.11544,0.24371 0.07696,0.43611 0.02567,0.37198 -0.01283,0.69265 0.102616,0.7696 0.02566,0.48742 0.205229,0.32067 0.448938,0.34633 0.423285,0.11544 0.628513,0.0385 0.513072,-0.0385 0.243707,-0.0898 v -0.3335 l -0.05131,-0.47459 -0.08979,-0.0513 -0.205227,0.0898 -0.410458,-0.0513 -0.551553,0.0256 -0.269362,-0.37197 -0.01283,-0.20523 -0.03848,-0.75678 0.08979,-0.5259 z"
           id="path16"
           inkscape:label="t" />
        <path
           style="opacity:1;fill:#1a1a1a;stroke-width:0.264583"
           d="m 51.435439,153.21604 0.397631,0.0513 0.295016,0.16675 0.256537,0.12826 0.230881,0.25654 0.230883,0.37198 0.141095,0.50024 v 0.42329 l -0.115441,0.42328 -0.230883,0.29502 -0.256535,0.20522 -0.346323,0.12827 h -0.346324 l -0.371978,-0.0257 -0.487418,-0.11544 -0.333497,-0.38481 -0.307842,-0.29501 -0.128268,-0.48742 0.01283,-0.5259 0.153921,-0.51307 0.218054,-0.28219 0.307842,-0.20523 0.256538,-0.0641 0.320669,-0.077 0.01283,-0.50025 -0.577207,0.10262 -0.500245,0.26936 -0.269362,0.24371 -0.410456,0.47459 -0.307845,0.65417 v 0.47459 l 0.102616,0.43611 0.218053,0.61568 0.218057,0.32067 0.320669,0.26937 0.436113,0.12826 0.615685,0.0898 0.628513,0.0513 h 0.448937 l 0.359151,-0.0898 0.307842,-0.25653 0.384805,-0.39764 0.153921,-0.41045 0.218057,-0.55155 v -0.46177 l -0.05131,-0.5259 -0.179576,-0.47459 -0.397631,-0.46176 -0.474591,-0.26937 -0.487418,-0.1924 -0.474592,-0.0128 h -0.282188 l -0.03848,0.48742 z"
           id="path17"
           inkscape:label="o" />
        <path
           style="opacity:1;fill:#1a1a1a;stroke-width:0.264583"
           d="m 55.283478,152.15142 0.269361,-0.0385 0.166749,0.15392 0.08979,0.15392 0.01283,0.23088 0.01283,0.16675 0.307846,-0.0128 h 0.307842 l 0.333497,0.0385 0.295016,0.0641 0.307842,0.12827 0.07696,0.30784 v 0.1411 l -0.01283,0.0898 -0.141097,0.077 -0.295016,-0.11544 -0.384802,0.0128 -0.474591,-0.077 -0.24371,0.0513 -0.153921,0.21806 0.06414,0.92353 0.06413,0.73112 0.07696,0.23089 0.230881,0.23088 0.269364,0.0641 0.307843,0.0385 0.320669,-0.12826 0.295016,-0.10262 0.153922,0.0641 -0.02567,0.30784 -0.07696,0.53873 -0.423286,0.17957 -0.371975,0.14109 -0.346324,0.077 -0.32067,-0.0257 -0.320669,-0.077 -0.282192,-0.12827 -0.102613,-0.17957 -0.179575,-0.25654 -0.179576,-0.28219 -0.03848,-0.55155 0.01283,-1.09028 -0.102614,-0.70547 -0.205229,-0.0256 -0.205229,-0.34632 v -0.2822 l 0.08979,-0.077 0.243707,-0.12827 0.282192,-0.0385 0.153921,-0.16675 0.02566,-0.30784 0.01283,-0.20523 z"
           id="path18"
           inkscape:label="t" />
        <path
           style="opacity:1;fill:#1a1a1a;stroke-width:0.264583"
           d="m 63.415663,151.09962 0.32067,-0.0128 0.295016,-0.0128 0.256537,0.0256 h 0.32067 l 0.269361,0.0257 0.218057,0.077 0.218056,0.14109 0.102613,0.16675 0.06414,0.39763 0.03848,0.34632 -0.08979,0.29502 -0.192402,0.15392 -0.192402,0.1411 -0.230881,0.0898 -0.256537,0.0513 -0.295016,0.0385 -0.205229,0.0513 -0.230881,-0.077 -0.218056,-0.14109 0.05131,0.79526 0.23088,-0.11544 0.307843,-0.0513 0.24371,0.0257 0.423283,0.0513 0.384805,0.10261 0.333497,0.19241 0.269362,0.21805 0.166748,0.20523 0.07696,0.42328 v 0.37198 l -0.102613,0.28219 -0.269365,0.30784 -0.371978,0.20523 -0.359148,0.11544 -0.333496,0.0257 -0.44894,-0.0513 -0.359148,-0.0513 -0.166748,-0.0385 v 0.57721 0.15392 l 0.359148,0.0257 0.56438,0.0385 0.525899,-0.0641 0.808088,-0.15392 0.577204,-0.17958 0.32067,-0.26936 0.307842,-0.25654 0.153924,-0.51307 0.02564,-0.43611 -0.11544,-0.56438 -0.153921,-0.3848 -0.384805,-0.26936 -0.448937,-0.11544 -0.538726,-0.1411 0.397632,-0.17957 0.282188,-0.20523 0.08979,-0.26937 0.02567,-0.32067 0.01283,-0.34632 -0.07696,-0.42328 -0.128267,-0.35915 -0.179576,-0.32067 -0.256537,-0.12827 -0.384802,-0.16675 -0.615688,-0.10261 -0.64134,-0.0128 -0.43611,0.10262 -0.538726,-0.0128 -0.461764,0.0641 h -0.436115 l -0.243711,0.077 -0.128267,0.077 0.03848,0.42329 0.166748,0.14109 0.102614,0.23088 0.153921,0.89788 0.153922,0.85939 -0.02566,0.59004 0.102616,0.80808 v 0.39764 l -0.128267,0.30784 -0.166749,0.25653 -0.307842,0.19241 -0.20523,0.21805 -0.06414,0.28219 0.02566,0.28219 0.05131,0.17957 0.243707,0.0513 0.230884,-0.10261 0.371978,-0.0128 0.307842,0.0128 0.282189,-0.15392 h 0.346324 l -0.03848,-1.03897 -0.05131,-0.56438 -0.05131,-0.56438 -0.02566,-0.32067 0.01283,-0.26937 0.11544,-0.29501 v -0.26936 l -0.03848,-0.48742 -0.06413,-0.26936 -0.08979,-0.29502 -0.0513,-0.30784 -0.02567,-0.28219 -0.01283,-0.32067 z"
           id="path19"
           inkscape:label="B" />
        <path
           style="opacity:1;fill:#1a1a1a;stroke-width:0.264583"
           d="m 69.420935,153.8238 0.175638,-0.20199 0.114165,-0.14051 0.105384,-0.0264 0.131728,-0.0176 0.122947,0.0351 0.0966,0.10538 0.166857,0.16686 0.105383,0.079 0.158076,0.0527 0.131728,0.0351 0.18442,0.009 0.122946,-0.0966 0.166854,-0.13173 0.03513,-0.20198 0.04391,-0.2459 -0.0088,-0.18442 -0.06147,-0.10538 -0.158075,-0.15808 -0.210765,-0.0878 -0.219548,-0.0439 -0.298585,0.079 -0.298585,0.14929 -0.210765,0.18442 -0.166857,0.0615 -0.210767,0.12295 -0.07025,-0.0439 0.04391,-0.18442 -0.02635,-0.28102 h -0.237111 l -0.18442,0.0878 -0.333714,0.079 -0.193201,0.1932 -0.131728,-0.0615 -0.105384,0.15807 v 0.28103 l 0.0966,0.0702 0.07904,0.0703 0.0966,0.1932 0.122947,0.15807 0.0966,0.39519 -0.01757,0.40397 -0.02635,0.56204 -0.01757,0.33371 -0.01757,0.23711 -0.131728,0.14929 -0.114165,0.0176 -0.281022,0.0176 -0.149291,0.15807 0.07025,0.3425 0.122947,0.12294 0.245893,0.0878 0.983573,-0.0351 0.605951,-0.0439 0.342495,-0.12295 0.289804,-0.10538 v -0.20199 l -0.06147,-0.23711 -0.166857,-0.10538 -0.254675,-0.0439 -0.298585,0.0527 -0.105383,-0.21955 -0.245894,-0.50935 -0.0088,-0.50935 -0.02635,-0.39518 v -0.30737 z"
           id="path20"
           inkscape:label="r" />
        <path
           style="opacity:1;fill:#1a1a1a;stroke-width:0.264583"
           d="m 75.164298,152.63824 0.210767,0.0439 0.193202,0.11416 0.07025,0.14051 0.06147,0.2459 0.0088,0.53569 0.0088,0.85185 -0.02635,0.56204 0.05269,0.34249 0.105384,0.18442 0.166854,0.1493 v 0.14051 l -0.05269,0.39518 -0.122947,0.15808 -0.105383,0.18442 -0.237112,0.0527 -0.193201,-0.0615 -0.263459,-0.0264 -0.289801,-0.0439 -0.623517,-0.009 -0.245893,0.0966 -0.395184,0.14051 h -0.447876 l -0.36884,-0.079 -0.360058,-0.15807 -0.114165,-0.32494 -0.01757,-0.28101 -0.04391,-0.54448 0.0088,-0.35128 -0.0966,-0.43031 0.02635,-0.48301 -0.02635,-0.21954 -0.07904,-0.20199 -0.0966,-0.30737 0.0088,-0.29858 0.06147,-0.21955 0.114162,-0.14051 0.131731,-0.0351 0.175636,-0.0264 0.22833,0.0351 0.166857,0.0439 0.05269,0.0527 0.0966,0.12295 0.07026,0.18442 0.0088,0.27224 -0.02635,0.37762 -0.03513,0.65864 -0.02635,0.45666 0.04391,0.40397 0.07025,0.21955 0.07904,0.21076 0.351276,0.17564 0.360059,0.0263 0.333713,0.009 0.316148,-0.0439 0.219546,-0.14929 0.131731,-0.18442 v -0.25468 -0.35128 l -0.03513,-0.79037 0.01757,-0.56204 -0.04391,-0.3864 -0.03513,-0.22833 0.02635,-0.2459 0.158075,-0.079 0.18442,-0.079 z"
           id="path21"
           inkscape:label="u" />
        <path
           style="opacity:1;fill:#1a1a1a;stroke-width:0.264583"
           d="m 78.81327,155.99021 0.08285,0.12428 0.155348,0.10356 h 0.196773 l 0.103566,0.18642 0.01035,0.25891 v 0.18642 l -0.227843,-0.0104 -0.269269,0.0207 -0.258914,-0.0207 -0.269271,0.0207 -0.289984,0.0518 -0.372835,0.0207 -0.434975,-0.0103 -0.165703,-0.11392 -0.01035,-0.34177 0.08285,-0.2382 0.207129,-0.0932 0.217487,-0.0414 0.113924,-0.0621 v -0.21749 l -0.01037,-0.49711 -0.06214,-0.68354 -0.01037,-0.50747 v -0.38319 l -0.0725,-0.1657 h -0.217488 l -0.186417,-0.10357 -0.08285,-0.18642 -0.04143,-0.18641 v -0.2382 l 0.04143,-0.11393 0.134636,-0.0311 0.258913,-0.0518 0.0725,-0.13463 0.08285,-0.3832 0.08285,-0.35212 0.186417,-0.45569 0.310698,-0.37283 0.486756,-0.34177 0.590323,-0.28998 0.341767,-0.13463 0.466043,0.0103 0.331409,0.0828 0.538541,0.0932 0.269269,0.20713 0.09321,0.12428 0.165706,0.2382 h 0.08285 l 0.279625,-0.4039 0.207132,-0.26927 0.352123,-0.16571 0.476401,-0.0725 0.383191,0.0621 h 0.196776 l 0.238199,-0.20713 h 0.217487 l 0.176062,0.15534 0.113922,0.41426 -0.02072,0.32106 -0.01035,0.33141 -0.207131,0.0103 -0.414261,0.0103 -0.155347,-0.19678 -0.30034,-0.24856 -0.403905,-0.19677 -0.352123,0.0518 -0.269269,0.21749 -0.217488,0.34177 -0.103565,0.84923 -0.0725,0.44533 0.01035,0.18642 0.08285,0.0518 0.310697,0.0621 0.01035,0.13464 -0.02072,0.18642 -0.02072,0.22784 -0.0725,0.0207 -0.207132,0.0518 -0.217485,0.0311 0.03107,0.3107 0.12428,1.191 v 0.42462 l 0.134633,0.50747 0.144992,0.30034 0.279627,0.11392 0.124278,0.0621 0.01037,0.22784 v 0.30034 l -0.310697,0.0311 -0.642104,-0.0103 -0.476401,0.0725 -0.476401,-0.0207 -0.300342,0.0104 -0.09321,-0.12428 0.02072,-0.30034 0.289983,-0.24856 0.217488,-0.0932 0.08285,-0.13463 0.09321,-0.4039 v -0.6214 l -0.09321,-0.63174 -0.144992,-0.82853 -0.207132,-0.0207 -0.403905,-0.0207 -0.207131,-0.0518 0.02072,-0.24855 v -0.15535 l 0.310695,-0.15535 0.207131,-0.0207 0.165706,-0.11392 0.113922,-0.19677 0.09321,-0.43498 0.03107,-0.39355 -0.01034,-0.32105 -0.248557,-0.32105 -0.341765,-0.19678 -0.300342,-0.0829 -0.289984,0.0104 -0.28998,0.0828 -0.279628,0.3107 -0.352123,0.48675 -0.08285,0.41427 0.03107,0.44533 0.09321,0.53854 v 0.59032 l 0.03107,1.14958 0.08285,0.68353 z"
           id="path22"
           inkscape:label="ff" />
        <path
           style="opacity:1;fill:#1a1a1a;stroke-width:0.264583"
           d="m 86.618232,155.2128 0.198459,0.2165 0.06315,0.24356 0.03608,0.18042 -0.08119,0.14434 -0.306708,0.25258 -0.451043,0.22552 -0.487127,0.13531 -0.360833,0.0812 -0.469085,-0.0451 -0.442021,-0.16238 -0.31573,-0.35181 -0.234543,-0.37888 -0.153355,-0.66754 -0.108249,-0.50517 v -0.50517 l 0.126291,-0.46006 0.153355,-0.32475 0.234543,-0.36084 0.414959,-0.22552 0.333772,-0.0541 0.54125,-0.0812 0.469085,0.009 0.40594,0.0271 0.333769,0.17139 0.189439,0.33377 0.108249,0.36084 -0.05412,0.14433 -0.04511,0.19846 -0.117269,0.23454 -0.126294,0.2165 -0.387897,0.15336 h -0.369853 l -0.640483,0.009 -0.306707,-0.018 -0.153355,0.009 0.02706,-0.25259 0.07217,-0.10825 0.162375,0.018 0.405939,-0.0361 0.396918,-0.0632 0.234542,-0.0902 -0.009,-0.11727 -0.09923,-0.2165 -0.162375,-0.19846 -0.306708,-0.0902 -0.243565,0.0361 -0.270623,0.0902 -0.198459,0.18041 -0.135313,0.45105 -0.009,0.44202 0.01805,0.46006 0.243562,0.36084 0.378878,0.32474 0.32475,0.10826 0.324752,0.0722 0.315727,-0.16237 0.39692,-0.26161 z"
           id="path23"
           inkscape:label="e" />
        <path
           style="opacity:1;fill:#1a1a1a;stroke-width:0.264583"
           d="m 89.818381,155.79479 0.292079,0.0751 0.183591,0.0334 0.03338,0.15856 0.0083,0.24201 0.0083,0.25035 -0.517398,0.025 -1.168316,0.0167 -0.692642,0.008 -0.0083,-0.50071 0.267041,-0.025 0.158557,-0.10015 0.133522,-0.10848 0.05842,-0.74272 -0.01669,-0.51739 -0.175249,-1.2935 -0.13352,-0.60084 -0.208629,-0.63423 -0.05007,-0.78444 -0.166901,-0.32546 0.0083,-0.47567 0.183592,-0.12518 0.400566,-0.10848 0.45898,0.0834 0.208627,0.51739 0.01669,0.71768 v 0.90127 l 0.07511,0.53409 0.158557,1.24342 0.267044,1.00976 0.108485,0.32546 z"
           id="path24"
           inkscape:label="l" />
        <path
           style="opacity:1;fill:#1a1a1a;stroke-width:0.264583"
           d="m 95.225213,152.48729 0.01511,0.27203 0.03023,0.16624 0.241803,0.10578 0.287142,0.13602 0.120901,0.1209 0.105788,0.34759 0.03023,0.48361 0.06045,0.74052 0.01511,0.49872 -0.151127,0.22669 -0.332481,0.10579 -0.241803,0.21158 -0.07556,0.15113 0.03023,0.27203 0.105789,0.16624 0.196466,0.0453 0.408043,0.0453 0.589397,0.0151 0.967213,-0.0756 0.544057,-0.0151 c 0,0 0.122126,-0.15613 0.171269,-0.24181 0.04861,-0.0848 0.110002,-0.16991 0.120917,-0.26699 0.0094,-0.0834 -0.05038,-0.24684 -0.05038,-0.24684 0,0 -0.0479,-0.13962 -0.105788,-0.17633 -0.07126,-0.0452 -0.251863,-0.0252 -0.251863,-0.0252 l -0.277036,-0.0806 -0.09574,-0.28208 -0.02521,-0.26698 -0.03023,-0.45338 -0.09068,-0.60451 0.01511,-0.37782 0.105789,-0.30225 0.136014,-0.28714 0.16624,-0.21158 0.105789,-0.0907 -0.04534,-0.25692 -0.09068,-0.15113 -0.453382,0.0151 -0.816086,0.0756 -0.710297,0.0453 -0.513832,0.1209 z"
           id="path25"
           inkscape:label="I"
           sodipodi:nodetypes="cccccccccccccccccccccaacacccccccccccccccccc" />
        <path
           style="opacity:1;fill:#1a1a1a;stroke-width:0.264583"
           d="m 105.29028,150.59471 -0.64985,0.2418 -0.69518,0.27203 -0.66496,0.40805 -0.74052,0.60451 -0.55917,0.84631 -0.37782,0.7103 -0.0756,0.51383 0.0151,0.42315 0.0756,0.39293 0.19647,0.39294 0.30226,0.52894 0.30225,0.19646 0.51383,0.0302 0.63474,-0.0151 0.52894,-0.0907 0.36271,-0.24181 0.31736,-0.4836 -0.0151,-0.30226 -0.12091,-0.39293 -0.30225,-0.37782 -0.42316,-0.2418 -0.45338,-0.0756 h -0.55917 l -0.64984,-0.0302 -0.22669,-0.0151 0.22669,-0.19646 0.39293,-0.25692 0.2418,-0.0756 h 0.49872 l 0.63473,0.10579 0.49872,0.19646 0.40805,0.24181 0.27202,0.25691 0.15113,0.30226 0.13602,0.54405 -0.0453,0.48361 -0.40805,0.49872 -0.34759,0.39293 -0.46849,0.19647 -0.7103,0.18135 -0.60451,0.0302 -0.78586,-0.0605 -0.72541,-0.30225 -0.5894,-0.55917 -0.21157,-0.60451 -0.1209,-0.63473 v -0.49872 l 0.0756,-0.49872 0.2418,-0.63474 0.45338,-0.63473 0.48361,-0.49872 0.66496,-0.57428 0.81609,-0.48361 0.4836,-0.31737 0.57429,-0.1209 0.46849,0.0151 z"
           id="path26"
           inkscape:label="6" />
      </g>
    </g>
  </g>
</svg>
